<svg width="26" height="21" viewBox="0 0 26 21" fill="none" xmlns="http://www.w3.org/2000/svg">
<path d="M26 2.48593C25.0264 2.9146 23.9937 3.19597 22.9363 3.3207C24.0377 2.66459 24.8834 1.62563 25.2816 0.387708C24.2346 1.00524 23.089 1.44033 21.8944 1.67418C20.9214 0.643891 19.5351 0 18.0008 0C15.0549 0 12.6665 2.37369 12.6665 5.30133C12.6665 5.71689 12.7137 6.12146 12.8046 6.50957C8.37139 6.28841 4.44092 4.17787 1.80995 0.97043C1.35088 1.75342 1.08784 2.66419 1.08784 3.63563C1.08784 5.47494 2.02962 7.09754 3.46084 8.04829C2.61376 8.02192 1.78532 7.79454 1.04467 7.38512C1.04437 7.40732 1.04437 7.42953 1.04437 7.45184C1.04437 10.0204 2.88305 12.1632 5.32319 12.6502C4.5377 12.8625 3.71376 12.8936 2.91434 12.7411C3.59308 14.8473 5.56309 16.3799 7.8972 16.4228C6.07161 17.8446 3.77152 18.6922 1.27248 18.6922C0.841852 18.6922 0.41732 18.6671 0 18.6181C2.36062 20.1223 5.16445 21 8.1768 21C17.9884 21 23.3537 12.9217 23.3537 5.91615C23.3537 5.68621 23.3486 5.45758 23.3383 5.23027C24.3825 4.47997 25.2839 3.55065 26 2.48593Z" fill="#55ACEE"/>
</svg>
